# xmcd CD database file
#
# Track frame offsets:
#	150
#	15142
#	28967
#
# Disc length: 747 seconds
#
# Revision: 0
# Processed by: cddbd v1.5PL3 Copyright (c) Steve Scherf et al.
# Submitted via: CDex 1.50beta10
#
DISCID=1602e903
DTITLE=佐野元春 - ヤァ！ソウルボーイ
DYEAR=1996
DGENRE=JPop
TTITLE0=ヤァ！ソウルボーイ
TTITLE1=ダンスが終わる前に
TTITLE2=ヤァ！ソウルボーイ（Up-Soul Ver.)
EXTD=YEAR: 1996
EXTT0=
EXTT1=
EXTT2=
PLAYORDER=
